ffmpeg version 5.0 Copyright (c) 2000-2022 the FFmpeg developers
  built with Apple clang version 13.0.0 (clang-1300.0.29.30)
  configuration: --prefix=/usr/local/Cellar/ffmpeg/5.0 --enable-shared --enable-pthreads --enable-version3 --cc=clang --host-cflags= --host-ldflags= --enable-ffplay --enable-gnutls --enable-gpl --enable-libaom --enable-libbluray --enable-libdav1d --enable-libmp3lame --enable-libopus --enable-librav1e --enable-librist --enable-librubberband --enable-libsnappy --enable-libsrt --enable-libtesseract --enable-libtheora --enable-libvidstab --enable-libvmaf --enable-libvorbis --enable-libvpx --enable-libwebp --enable-libx264 --enable-libx265 --enable-libxml2 --enable-libxvid --enable-lzma --enable-libfontconfig --enable-libfreetype --enable-frei0r --enable-libass --enable-libopencore-amrnb --enable-libopencore-amrwb --enable-libopenjpeg --enable-libspeex --enable-libsoxr --enable-libzmq --enable-libzimg --disable-libjack --disable-indev=jack --enable-videotoolbox
  libavutil      57. 17.100 / 57. 17.100
  libavcodec     59. 18.100 / 59. 18.100
  libavformat    59. 16.100 / 59. 16.100
  libavdevice    59.  4.100 / 59.  4.100
  libavfilter     8. 24.100 /  8. 24.100
  libswscale      6.  4.100 /  6.  4.100
  libswresample   4.  3.100 /  4.  3.100
  libpostproc    56.  3.100 / 56.  3.100
Input #0, rawvideo, from 'pipe:':
  Duration: N/A, start: 0.000000, bitrate: 839808 kb/s
  Stream #0:0: Video: rawvideo (RGB[24] / 0x18424752), rgb24, 1080x1080, 839808 kb/s, 30 tbr, 30 tbn
Stream mapping:
  Stream #0:0 -> #0:0 (rawvideo (native) -> h264 (libx264))
[libx264 @ 0x7fc3cc00b040] using cpu capabilities: MMX2 SSE2Fast SSSE3 SSE4.2 AVX FMA3 BMI2 AVX2
[libx264 @ 0x7fc3cc00b040] profile High, level 3.2, 4:2:0, 8-bit
[libx264 @ 0x7fc3cc00b040] 264 - core 163 r3060 5db6aa6 - H.264/MPEG-4 AVC codec - Copyleft 2003-2021 - http://www.videolan.org/x264.html - options: cabac=1 ref=3 deblock=1:0:0 analyse=0x3:0x113 me=hex subme=7 psy=1 psy_rd=1.00:0.00 mixed_ref=1 me_range=16 chroma_me=1 trellis=1 8x8dct=1 cqm=0 deadzone=21,11 fast_pskip=1 chroma_qp_offset=-2 threads=24 lookahead_threads=4 sliced_threads=0 nr=0 decimate=1 interlaced=0 bluray_compat=0 constrained_intra=0 bframes=3 b_pyramid=2 b_adapt=1 b_bias=0 direct=1 weightb=1 open_gop=0 weightp=2 keyint=250 keyint_min=25 scenecut=40 intra_refresh=0 rc_lookahead=40 rc=crf mbtree=1 crf=15.0 qcomp=0.60 qpmin=0 qpmax=69 qpstep=4 ip_ratio=1.40 aq=1:1.00
Output #0, mp4, to '/Users/jasonlaferrera/personal/processing/video_test_5/myVideo.mp4':
  Metadata:
    comment         : Made with Video Export for Processing - https://git.io/vAXLk
    encoder         : Lavf59.16.100
  Stream #0:0: Video: h264 (avc1 / 0x31637661), yuv420p(tv, progressive), 1080x1080, q=2-31, 30 fps, 15360 tbn
    Metadata:
      encoder         : Lavc59.18.100 libx264
    Side data:
      cpb: bitrate max/min/avg: 0/0/0 buffer size: 0 vbv_delay: N/A
frame=    1 fps=0.0 q=0.0 size=       0kB time=00:00:00.00 bitrate=N/A speed=   0x    frame=    7 fps=0.0 q=0.0 size=       0kB time=00:00:00.00 bitrate=N/A speed=   0x    frame=   13 fps= 12 q=0.0 size=       0kB time=00:00:00.00 bitrate=N/A speed=   0x    frame=   19 fps= 12 q=0.0 size=       0kB time=00:00:00.00 bitrate=N/A speed=   0x    frame=   25 fps= 11 q=0.0 size=       0kB time=00:00:00.00 bitrate=N/A speed=   0x    frame=   30 fps= 11 q=0.0 size=       0kB time=00:00:00.00 bitrate=N/A speed=   0x    frame=   35 fps= 11 q=0.0 size=       0kB time=00:00:00.00 bitrate=N/A speed=   0x    frame=   40 fps= 11 q=0.0 size=       0kB time=00:00:00.00 bitrate=N/A speed=   0x    frame=   45 fps= 10 q=0.0 size=       0kB time=00:00:00.00 bitrate=N/A speed=   0x    frame=   50 fps= 10 q=0.0 size=       0kB time=00:00:00.00 bitrate=N/A speed=   0x    frame=   55 fps= 10 q=0.0 size=       0kB time=00:00:00.00 bitrate=N/A speed=   0x    frame=   60 fps=9.9 q=0.0 size=       0kB time=00:00:00.00 bitrate=N/A speed=   0x    frame=   65 fps=9.8 q=0.0 size=       0kB time=00:00:00.00 bitrate=N/A speed=   0x    frame=   69 fps=9.6 q=21.0 size=       0kB time=-00:00:00.06 bitrate=N/A speed=N/A    frame=   74 fps=9.5 q=21.0 size=     512kB time=00:00:00.10 bitrate=41919.6kbits/s speed=0.0129x    frame=   78 fps=9.4 q=21.0 size=    1280kB time=00:00:00.23 bitrate=44928.2kbits/s speed=0.0282x    frame=   82 fps=9.3 q=21.0 size=    2560kB time=00:00:00.36 bitrate=57185.9kbits/s speed=0.0417x    frame=   86 fps=9.2 q=21.0 size=    3584kB time=00:00:00.50 bitrate=58713.4kbits/s speed=0.0536x    frame=   90 fps=9.1 q=21.0 size=    4608kB time=00:00:00.63 bitrate=59597.8kbits/s speed=0.0642x    frame=   94 fps=9.0 q=21.0 size=    5888kB time=00:00:00.76 bitrate=62909.7kbits/s speed=0.0737x    frame=   98 fps=9.0 q=21.0 size=    7168kB time=00:00:00.90 bitrate=65240.4kbits/s speed=0.0823x    frame=  102 fps=8.9 q=21.0 size=    8448kB time=00:00:01.03 bitrate=66969.7kbits/s speed=0.0899x    frame=  106 fps=8.8 q=21.0 size=    9728kB time=00:00:01.16 bitrate=68303.7kbits/s speed=0.0969x    frame=  110 fps=8.8 q=21.0 size=   10752kB time=00:00:01.30 bitrate=67751.0kbits/s speed=0.104x    frame=  115 fps=8.7 q=21.0 size=   12032kB time=00:00:01.46 bitrate=67201.5kbits/s speed=0.111x    frame=  119 fps=8.7 q=21.0 size=   12800kB time=00:00:01.60 bitrate=65533.6kbits/s speed=0.117x    frame=  123 fps=8.7 q=21.0 size=   13568kB time=00:00:01.73 bitrate=64122.3kbits/s speed=0.122x    frame=  127 fps=8.6 q=21.0 size=   14336kB time=00:00:01.86 bitrate=62912.6kbits/s speed=0.127x    frame=  131 fps=8.6 q=21.0 size=   15104kB time=00:00:02.00 bitrate=61864.2kbits/s speed=0.131x    frame=  135 fps=8.6 q=21.0 size=   16128kB time=00:00:02.13 bitrate=61929.8kbits/s speed=0.136x    frame=  139 fps=8.5 q=21.0 size=   16896kB time=00:00:02.26 bitrate=61062.5kbits/s speed=0.139x    frame=  143 fps=8.5 q=21.0 size=   17664kB time=00:00:02.40 bitrate=60291.6kbits/s speed=0.143x    frame=  147 fps=8.5 q=21.0 size=   18432kB time=00:00:02.53 bitrate=59601.9kbits/s speed=0.146x    frame=  151 fps=8.4 q=21.0 size=   19200kB time=00:00:02.66 bitrate=58981.1kbits/s speed=0.149x    frame=  155 fps=8.4 q=21.0 size=   19968kB time=00:00:02.80 bitrate=58419.4kbits/s speed=0.152x    frame=  159 fps=8.4 q=21.0 size=   20992kB time=00:00:02.93 bitrate=58623.8kbits/s speed=0.155x    frame=  163 fps=8.4 q=21.0 size=   21760kB time=00:00:03.06 bitrate=58126.5kbits/s speed=0.158x    frame=  167 fps=8.3 q=21.0 size=   22784kB time=00:00:03.20 bitrate=58326.0kbits/s speed=0.16x    frame=  171 fps=8.3 q=21.0 size=   23552kB time=00:00:03.33 bitrate=57880.4kbits/s speed=0.162x    frame=  175 fps=8.3 q=21.0 size=   24576kB time=00:00:03.46 bitrate=58074.0kbits/s speed=0.164x    frame=  179 fps=8.3 q=21.0 size=   25600kB time=00:00:03.60 bitrate=58253.3kbits/s speed=0.167x    frame=  183 fps=8.3 q=21.0 size=   26880kB time=00:00:03.73 bitrate=58981.5kbits/s speed=0.169x    frame=  188 fps=8.3 q=21.0 size=   28160kB time=00:00:03.90 bitrate=59149.6kbits/s speed=0.172x    frame=  192 fps=8.3 q=21.0 size=   29184kB time=00:00:04.03 bitrate=59274.0kbits/s speed=0.174x    frame=  196 fps=8.2 q=21.0 size=   30208kB time=00:00:04.16 bitrate=59390.5kbits/s speed=0.175x    frame=  200 fps=8.2 q=21.0 size=   31232kB time=00:00:04.30 bitrate=59499.8kbits/s speed=0.177x    frame=  204 fps=8.2 q=21.0 size=   32256kB time=00:00:04.43 bitrate=59602.5kbits/s speed=0.179x    frame=  208 fps=8.2 q=21.0 size=   33024kB time=00:00:04.56 bitrate=59240.0kbits/s speed=0.18x    frame=  212 fps=8.2 q=21.0 size=   34048kB time=00:00:04.70 bitrate=59344.2kbits/s speed=0.182x    frame=  217 fps=8.2 q=21.0 size=   35072kB time=00:00:04.86 bitrate=59035.6kbits/s speed=0.184x    frame=  222 fps=8.2 q=21.0 size=   36352kB time=00:00:05.03 bitrate=59164.0kbits/s speed=0.186x    frame=  227 fps=8.2 q=21.0 size=   37888kB time=00:00:05.20 bitrate=59687.5kbits/s speed=0.189x    frame=  232 fps=8.2 q=21.0 size=   38912kB time=00:00:05.36 bitrate=59396.9kbits/s speed=0.191x    frame=  237 fps=8.3 q=21.0 size=   40192kB time=00:00:05.53 bitrate=59502.9kbits/s speed=0.193x    frame=  241 fps=8.3 q=21.0 size=   41216kB time=00:00:05.66 bitrate=59583.2kbits/s speed=0.194x    frame=  246 fps=8.3 q=21.0 size=   42496kB time=00:00:05.83 bitrate=59678.4kbits/s speed=0.196x    frame=  251 fps=8.3 q=21.0 size=   43776kB time=00:00:06.00 bitrate=59768.2kbits/s speed=0.197x    frame=  256 fps=8.3 q=21.0 size=   45056kB time=00:00:06.16 bitrate=59853.3kbits/s speed=0.199x    frame=  261 fps=8.3 q=21.0 size=   46336kB time=00:00:06.33 bitrate=59933.8kbits/s speed=0.201x    frame=  266 fps=8.3 q=21.0 size=   47872kB time=00:00:06.50 bitrate=60332.9kbits/s speed=0.202x    frame=  271 fps=8.3 q=21.0 size=   49664kB time=00:00:06.66 bitrate=61026.6kbits/s speed=0.204x    frame=  275 fps=8.3 q=21.0 size=   50944kB time=00:00:06.80 bitrate=61372.0kbits/s speed=0.205x    frame=  280 fps=8.3 q=21.0 size=   52480kB time=00:00:06.96 bitrate=61709.9kbits/s speed=0.206x    frame=  285 fps=8.3 q=21.0 size=   53760kB time=00:00:07.13 bitrate=61738.1kbits/s speed=0.207x    frame=  289 fps=8.3 q=21.0 size=   55040kB time=00:00:07.26 bitrate=62048.3kbits/s speed=0.208x    frame=  293 fps=8.2 q=21.0 size=   56064kB time=00:00:07.40 bitrate=62063.9kbits/s speed=0.208x    frame=  297 fps=8.2 q=21.0 size=   56832kB time=00:00:07.53 bitrate=61800.5kbits/s speed=0.209x    frame=  301 fps=8.2 q=21.0 size=   57600kB time=00:00:07.66 bitrate=61546.4kbits/s speed=0.209x    frame=  305 fps=8.2 q=21.0 size=   58624kB time=00:00:07.80 bitrate=61569.8kbits/s speed=0.21x    frame=  309 fps=8.2 q=21.0 size=   59392kB time=00:00:07.93 bitrate=61328.0kbits/s speed=0.21x    frame=  313 fps=8.2 q=21.0 size=   60160kB time=00:00:08.06 bitrate=61094.3kbits/s speed=0.211x    frame=  317 fps=8.2 q=21.0 size=   60928kB time=00:00:08.20 bitrate=60868.1kbits/s speed=0.211x    frame=  321 fps=8.2 q=21.0 size=   61952kB time=00:00:08.33 bitrate=60900.9kbits/s speed=0.212x    frame=  325 fps=8.2 q=21.0 size=   62976kB time=00:00:08.46 bitrate=60932.6kbits/s speed=0.213x    frame=  329 fps=8.2 q=21.0 size=   64256kB time=00:00:08.60 bitrate=61207.2kbits/s speed=0.213x    frame=  333 fps=8.1 q=21.0 size=   65536kB time=00:00:08.73 bitrate=61473.4kbits/s speed=0.213x    frame=  337 fps=8.1 q=21.0 size=   66816kB time=00:00:08.86 bitrate=61731.5kbits/s speed=0.214x    frame=  341 fps=8.1 q=21.0 size=   68096kB time=00:00:09.00 bitrate=61982.1kbits/s speed=0.214x    frame=  345 fps=8.1 q=21.0 size=   69376kB time=00:00:09.13 bitrate=62225.3kbits/s speed=0.215x    frame=  349 fps=8.1 q=21.0 size=   70656kB time=00:00:09.26 bitrate=62461.5kbits/s speed=0.215x    frame=  353 fps=8.1 q=21.0 size=   71936kB time=00:00:09.40 bitrate=62691.1kbits/s speed=0.216x    frame=  357 fps=8.1 q=21.0 size=   73216kB time=00:00:09.53 bitrate=62914.2kbits/s speed=0.216x    frame=  361 fps=8.1 q=21.0 size=   74240kB time=00:00:09.66 bitrate=62914.2kbits/s speed=0.217x    frame=  365 fps=8.1 q=21.0 size=   75264kB time=00:00:09.80 bitrate=62914.2kbits/s speed=0.217x    frame=  370 fps=8.1 q=21.0 size=   76544kB time=00:00:09.96 bitrate=62914.2kbits/s speed=0.218x    frame=  375 fps=8.1 q=21.0 size=   77824kB time=00:00:10.13 bitrate=62914.2kbits/s speed=0.218x    frame=  380 fps=8.1 q=21.0 size=   79360kB time=00:00:10.30 bitrate=63117.8kbits/s speed=0.219x    frame=  385 fps=8.1 q=21.0 size=   80640kB time=00:00:10.46 bitrate=63114.6kbits/s speed=0.221x    frame=  390 fps=8.1 q=21.0 size=   82176kB time=00:00:10.63 bitrate=63308.7kbits/s speed=0.222x    frame=  396 fps=8.2 q=21.0 size=   83968kB time=00:00:10.83 bitrate=63495.0kbits/s speed=0.223x    frame=  402 fps=8.2 q=21.0 size=   85504kB time=00:00:11.03 bitrate=63484.4kbits/s speed=0.225x    frame=  407 fps=8.2 q=21.0 size=   86784kB time=00:00:11.20 bitrate=63476.0kbits/s speed=0.226x    frame=  412 fps=8.2 q=21.0 size=   88064kB time=00:00:11.36 bitrate=63467.7kbits/s speed=0.227x    frame=  417 fps=8.2 q=21.0 size=   89344kB time=00:00:11.53 bitrate=63459.7kbits/s speed=0.227x    frame=  421 fps=8.2 q=21.0 size=   90368kB time=00:00:11.66 bitrate=63453.5kbits/s speed=0.227x    frame=  425 fps=8.2 q=21.0 size=   91392kB time=00:00:11.80 bitrate=63447.4kbits/s speed=0.228x    frame=  429 fps=8.2 q=21.0 size=   92416kB time=00:00:11.93 bitrate=63441.5kbits/s speed=0.228x    frame=  433 fps=8.2 q=21.0 size=   93440kB time=00:00:12.06 bitrate=63435.6kbits/s speed=0.228x    frame=  437 fps=8.2 q=21.0 size=   94464kB time=00:00:12.20 bitrate=63429.9kbits/s speed=0.228x    frame=  441 fps=8.2 q=21.0 size=   95232kB time=00:00:12.33 bitrate=63254.3kbits/s speed=0.228x    frame=  445 fps=8.1 q=21.0 size=   96000kB time=00:00:12.46 bitrate=63082.5kbits/s speed=0.228x    frame=  449 fps=8.1 q=21.0 size=   96512kB time=00:00:12.60 bitrate=62747.8kbits/s speed=0.228x    frame=  452 fps=8.1 q=21.0 size=   96768kB time=00:00:12.70 bitrate=62418.9kbits/s speed=0.228x    frame=  452 fps=8.0 q=-1.0 Lsize=   97640kB time=00:00:14.96 bitrate=53443.2kbits/s speed=0.266x    
video:97633kB audio:0kB subtitle:0kB other streams:0kB global headers:0kB muxing overhead: 0.007159%
[libx264 @ 0x7fc3cc00b040] frame I:5     Avg QP:13.21  size:283173
[libx264 @ 0x7fc3cc00b040] frame P:119   Avg QP:19.18  size:290537
[libx264 @ 0x7fc3cc00b040] frame B:328   Avg QP:20.95  size:195080
[libx264 @ 0x7fc3cc00b040] consecutive B-frames:  2.9%  0.4%  2.0% 94.7%
[libx264 @ 0x7fc3cc00b040] mb I  I16..4: 38.5% 10.1% 51.4%
[libx264 @ 0x7fc3cc00b040] mb P  I16..4:  5.2%  2.9% 30.5%  P16..4: 14.5% 14.6% 17.7%  0.0%  0.0%    skip:14.7%
[libx264 @ 0x7fc3cc00b040] mb B  I16..4:  1.0%  0.6% 10.8%  B16..8: 17.9% 14.5% 22.9%  direct:13.6%  skip:18.7%  L0:43.6% L1:36.4% BI:20.0%
[libx264 @ 0x7fc3cc00b040] 8x8 transform intra:6.4% inter:20.4%
[libx264 @ 0x7fc3cc00b040] coded y,uvDC,uvAC intra: 89.3% 93.9% 92.7% inter: 56.7% 71.3% 66.2%
[libx264 @ 0x7fc3cc00b040] i16 v,h,dc,p: 67% 18% 13%  2%
[libx264 @ 0x7fc3cc00b040] i8 v,h,dc,ddl,ddr,vr,hd,vl,hu: 40% 14% 30%  4%  4%  2%  2%  2%  3%
[libx264 @ 0x7fc3cc00b040] i4 v,h,dc,ddl,ddr,vr,hd,vl,hu: 34% 28% 15%  3%  4%  4%  3%  4%  3%
[libx264 @ 0x7fc3cc00b040] i8c dc,h,v,p: 32% 20% 37% 10%
[libx264 @ 0x7fc3cc00b040] Weighted P-Frames: Y:23.5% UV:18.5%
[libx264 @ 0x7fc3cc00b040] ref P L0: 35.7% 10.9% 26.1% 22.3%  5.0%
[libx264 @ 0x7fc3cc00b040] ref B L0: 78.8% 15.3%  5.9%
[libx264 @ 0x7fc3cc00b040] ref B L1: 93.1%  6.9%
[libx264 @ 0x7fc3cc00b040] kb/s:53084.57
